# xmcd
#
# Track frame offsets:
# 150
# 2475
# 22976
# 39592
# 51570
# 66700
# 83644
# 87174
# 109816
# 126562
# 144111
# 200942
# 226768
# 242146
# 260483
# 269878
#
# Disc length: 3906 seconds
#
#
# Revision: 0
# Processed by: cddbd v1.5.2PL0 Copyright (c) Steve Scherf et al.
# Submitted via: FreeRIP 2.96 
#
DISCID=ea0f4010
DTITLE=Els Dottermans and Wim Opbrouck - Ik val, val in mijn armen
DYEAR=2007
DGENRE=Country
TTITLE0=Intro
TTITLE1=Het doet pijn
TTITLE2=Vallen
TTITLE3=Must be the Whiskey
TTITLE4=Menen
TTITLE5=Geef me het zout
TTITLE6=BMI
TTITLE7=Het domme aan de mensen
TTITLE8=Travailler c'est trop dûr
TTITLE9=Blijf bij je vent
TTITLE10=Fooled around
TTITLE11=Land van mij
TTITLE12=Recht in uw arms
TTITLE13=Abschiedslied
TTITLE14=Istanbul
TTITLE15=Fall
EXTD=
EXTT0=
EXTT1=
EXTT2=
EXTT3=
EXTT4=
EXTT5=
EXTT6=
EXTT7=
EXTT8=
EXTT9=
EXTT10=
EXTT11=
EXTT12=
EXTT13=
EXTT14=
EXTT15=
PLAYORDER=
